HIERARCHY
ROOT Hips
{
 OFFSET 0.000000 0.000000 0.000000
 CHANNELS 6 Xposition Yposition Zposition Yrotation Xrotation Zrotation
 JOINT Chest
 {
  OFFSET 0.000000 10.354800 0.006500
  CHANNELS 3 Yrotation Xrotation Zrotation
  JOINT Chest2
  {
   OFFSET 0.000000 10.435800 -0.013200
   CHANNELS 3 Yrotation Xrotation Zrotation
   JOINT Chest3
   {
    OFFSET 0.000000 10.393700 0.000000
    CHANNELS 3 Yrotation Xrotation Zrotation
    JOINT Chest4
    {
     OFFSET 0.000000 10.383100 0.000000
     CHANNELS 3 Yrotation Xrotation Zrotation
     JOINT Neck
     {
      OFFSET 0.000000 15.694000 0.000000
      CHANNELS 3 Yrotation Xrotation Zrotation
      JOINT Head
      {
       OFFSET 0.000000 9.711000 -0.028000
       CHANNELS 3 Yrotation Xrotation Zrotation
       End Site
       {
        OFFSET 0.000000 18.578700 -0.014800
       }
      }
     }
     JOINT RightCollar
     {
      OFFSET -3.157200 10.367500 0.000000
      CHANNELS 3 Yrotation Xrotation Zrotation
      JOINT RightShoulder
      {
       OFFSET -14.482500 0.000000 0.000000
       CHANNELS 3 Yrotation Xrotation Zrotation
       JOINT RightElbow
       {
        OFFSET 0.000000 -31.707800 0.000000
        CHANNELS 3 Yrotation Xrotation Zrotation
        JOINT RightWrist
        {
         OFFSET 0.000000 -25.659300 0.000000
         CHANNELS 3 Yrotation Xrotation Zrotation
         End Site
         {
          OFFSET 0.000000 -18.994300 0.000000
         }
        }
       }
      }
     }
     JOINT LeftCollar
     {
      OFFSET 3.157200 10.367500 0.000000
      CHANNELS 3 Yrotation Xrotation Zrotation
      JOINT LeftShoulder
      {
       OFFSET 14.482500 0.000000 0.000000
       CHANNELS 3 Yrotation Xrotation Zrotation
       JOINT LeftElbow
       {
        OFFSET 0.000000 -31.707800 0.000000
        CHANNELS 3 Yrotation Xrotation Zrotation
        JOINT LeftWrist
        {
         OFFSET 0.000000 -25.659300 0.000000
         CHANNELS 3 Yrotation Xrotation Zrotation
         End Site
         {
          OFFSET 0.000000 -18.994300 0.000000
         }
        }
       }
      }
     }
    }
   }
  }
 }
 JOINT RightHip
 {
  OFFSET -8.365600 -0.032100 -0.003200
  CHANNELS 3 Yrotation Xrotation Zrotation
  JOINT RightKnee
  {
   OFFSET 0.000000 -43.980000 0.003100
   CHANNELS 3 Yrotation Xrotation Zrotation
   JOINT RightAnkle
   {
    OFFSET 0.000000 -42.882800 0.005200
    CHANNELS 3 Yrotation Xrotation Zrotation
    JOINT RightToe
    {
     OFFSET 0.000000 -4.915500 10.826300
     CHANNELS 3 Yrotation Xrotation Zrotation
     End Site
     {
      OFFSET 0.000000 -1.517500 6.175900
     }
    }
   }
  }
 }
 JOINT LeftHip
 {
  OFFSET 8.365600 -0.032100 -0.003200
  CHANNELS 3 Yrotation Xrotation Zrotation
  JOINT LeftKnee
  {
   OFFSET 0.000000 -43.980000 0.003100
   CHANNELS 3 Yrotation Xrotation Zrotation
   JOINT LeftAnkle
   {
    OFFSET 0.000000 -42.882800 0.005200
    CHANNELS 3 Yrotation Xrotation Zrotation
    JOINT LeftToe
    {
     OFFSET 0.000000 -4.915500 10.826300
     CHANNELS 3 Yrotation Xrotation Zrotation
     End Site
     {
      OFFSET 0.000000 -1.517500 6.175900
     }
    }
   }
  }
 }
}
MOTION
Frames: 11
Frame Time: 0.008333
0.000000 91.618600 0.000000 0.000000 -5.767877 0.000000 0.000000 11.653817 0.000000 0.000000 -5.885947 0.000000 0.000000 -0.000000 0.000000 0.000000 -0.000000 0.000000 0.000000 12.528835 0.000000 0.000000 0.711642 0.000000 0.000000 -0.000000 0.000000 0.000000 0.000000 -90.000000 0.000000 -2.309062 0.000000 0.000000 2.309062 0.000000 0.000000 -0.000000 0.000000 0.000000 -0.000000 90.000000 0.000000 -2.309062 0.000000 0.000000 2.309062 0.000000 0.000000 8.520406 0.000000 0.000000 1.905762 0.000000 -0.000000 -4.658285 0.000000 0.000000 -0.000000 0.000000 0.000000 8.520406 0.000000 0.000000 1.905762 0.000000 -0.000000 -4.658285 0.000000 0.000000 -0.000000 0.000000
-0.548083 127.037333 41.165999 171.824204 -29.462535 -3.614937 -0.373076 15.489104 3.258703 -0.080593 1.463765 0.315312 -0.116806 2.536748 0.529706 -0.387369 13.750209 2.882626 -3.063136 21.267240 0.341652 -3.366814 -3.047733 1.085850 2.807206 5.707614 -4.588343 5.713616 -1.743467 -8.034467 -69.885901 -49.155285 113.428474 -26.145837 -18.970517 -36.192718 -0.053650 7.557844 0.405462 6.852635 3.589651 0.555489 75.925378 -59.391040 -121.268187 26.715423 -2.501858 39.020789 5.346176 -52.999028 0.933824 -93.634283 78.053806 -87.286153 3.769549 6.856503 -17.317372 -0.006859 -0.008569 -0.003114 -12.609358 -52.672895 0.228539 115.873703 83.738728 109.689614 -3.915767 -25.734730 0.573245 0.015808 -0.002825 0.007177
-0.549608 127.034270 41.163872 171.848994 -29.414761 -3.608010 -0.395131 15.471541 3.242222 -0.081553 1.466200 0.314973 -0.111816 2.569027 0.530398 -0.397053 13.759876 2.876086 -3.057389 21.237681 0.335757 -3.361571 -3.071484 1.085461 2.811986 5.701070 -4.601108 5.683552 -1.656253 -8.045035 -69.967684 -49.168261 113.508852 -26.144270 -18.975958 -36.216815 -0.064689 7.555967 0.398324 6.824846 3.567179 0.531110 75.829711 -59.299810 -121.183785 26.747897 -2.588293 39.120747 5.347919 -53.044522 0.892410 -93.702742 78.059052 -87.344406 3.789832 6.850894 -17.329605 0.001259 -0.007827 0.000571 -12.500279 -52.701498 0.117609 115.931723 83.801646 109.776152 -3.960807 -25.702321 0.626417 0.007383 0.006299 0.003353
-0.550843 127.031025 41.161037 171.869543 -29.363586 -3.598456 -0.413519 15.448933 3.225515 -0.076589 1.496320 0.315686 -0.117147 2.542914 0.529759 -0.401398 13.764970 2.872672 -3.056193 21.262500 0.318038 -3.350806 -3.043596 1.033160 2.826928 5.733456 -4.612180 5.647150 -1.612589 -8.046207 -70.007499 -49.164325 113.549830 -26.149665 -18.980305 -36.234833 -0.073225 7.590039 0.386785 6.791455 3.540820 0.508511 75.731195 -59.217058 -121.098458 26.779705 -2.660775 39.211165 5.335377 -53.094794 0.856015 -93.735757 78.073542 -87.386538 3.845685 6.855790 -17.334016 0.002364 -0.009292 0.001073 -12.400897 -52.733744 0.011708 116.053294 83.869500 109.923107 -4.009762 -25.685230 0.684403 0.001764 0.010158 0.000801
-0.551525 127.028977 41.155316 171.885540 -29.325157 -3.586238 -0.397063 15.522901 3.223033 -0.081165 1.487148 0.314337 -0.136340 2.471410 0.525575 -0.404777 13.770453 2.869440 -3.053910 21.302517 0.294441 -3.352212 -3.096701 1.047411 2.845192 5.764149 -4.623691 5.620063 -1.585571 -8.038430 -70.076715 -49.175928 113.622324 -26.184255 -18.980231 -36.285321 -0.079066 7.622521 0.375035 6.758298 3.509551 0.487155 75.620857 -59.138515 -121.009035 26.807261 -2.718976 39.293237 5.330791 -53.131850 0.815768 -93.810476 78.092208 -87.456354 3.832419 6.849058 -17.339717 -0.001243 -0.007545 -0.000564 -12.281531 -52.752110 -0.113101 116.207262 83.944952 110.110623 -4.044928 -25.678212 0.738735 -0.002062 0.010559 -0.000937
-0.550633 127.026978 41.149329 171.901645 -29.285621 -3.581742 -0.407405 15.510853 3.215027 -0.069993 1.530489 0.317492 -0.140977 2.461846 0.523295 -0.386389 13.850341 2.864696 -3.063493 21.223186 0.291837 -3.357761 -3.133747 1.055718 2.830710 5.655455 -4.626721 5.618221 -1.519798 -8.028943 -70.073161 -49.154707 113.595742 -26.187761 -18.998880 -36.281274 -0.104135 7.550115 0.372756 6.726357 3.473703 0.469038 75.494693 -59.060659 -120.909375 26.829765 -2.763798 39.364292 5.307006 -53.166969 0.795558 -93.906780 78.112596 -87.536282 3.798527 6.826202 -17.368500 0.001565 -0.004809 0.000710 -12.163112 -52.771143 -0.236752 116.266841 83.999651 110.219044 -4.087091 -25.676337 0.775065 -0.001794 0.009656 -0.000815
-0.548806 127.023950 41.145045 171.911776 -29.233212 -3.580486 -0.411539 15.485757 3.213747 -0.070330 1.531301 0.317720 -0.131676 2.494203 0.524882 -0.392476 13.823327 2.862622 -3.058972 21.252219 0.272946 -3.365207 -3.141358 1.045194 2.829816 5.655481 -4.634679 5.622857 -1.455687 -8.014579 -70.061930 -49.135156 113.560206 -26.173358 -19.025159 -36.253962 -0.111626 7.583125 0.362360 6.700984 3.428349 0.458087 75.339737 -58.974265 -120.793512 26.850624 -2.795328 39.426843 5.280765 -53.218155 0.786224 -93.947458 78.126667 -87.578418 3.833104 6.826715 -17.379706 0.003727 -0.005022 0.001692 -12.044760 -52.805764 -0.353984 116.133460 84.010549 110.154917 -4.171193 -25.671626 0.786655 0.003003 0.008231 0.001364
-0.545736 127.022826 41.137243 171.915137 -29.201338 -3.580092 -0.400484 15.507169 3.221714 -0.076512 1.505164 0.314987 -0.112932 2.571849 0.529348 -0.407758 13.749730 2.858473 -3.059394 21.251664 0.264694 -3.359795 -3.118315 1.014951 2.862668 5.721190 -4.657950 5.584674 -1.480544 -7.988490 -70.040141 -49.120772 113.517464 -26.183760 -19.044228 -36.259061 -0.118416 7.582969 0.357784 6.691549 3.402056 0.455561 75.143914 -58.867590 -120.659226 26.870286 -2.814752 39.485945 5.243101 -53.246746 0.787718 -93.975741 78.144273 -87.614153 3.900860 6.827963 -17.395351 0.004296 -0.007178 0.001950 -11.915111 -52.822066 -0.468845 116.303072 84.066738 110.374566 -4.165817 -25.679343 0.820926 0.002509 0.003160 0.001139
-0.541867 127.021710 41.129341 171.920199 -29.167791 -3.585218 -0.376409 15.577887 3.238752 -0.075479 1.506924 0.314992 -0.121843 2.527175 0.527235 -0.400963 13.756644 2.858274 -3.065852 21.214727 0.260179 -3.345978 -3.090364 0.979654 2.877418 5.716822 -4.672825 5.572865 -1.457294 -7.965703 -70.044954 -49.119098 113.491062 -26.202954 -19.057712 -36.283977 -0.133197 7.543608 0.354731 6.660490 3.401946 0.440579 74.993182 -58.771208 -120.563800 26.890862 -2.829648 39.538237 5.232506 -53.279287 0.784773 -94.025438 78.144196 -87.652033 3.948406 6.830155 -17.407429 0.011285 -0.010660 0.005123 -11.797100 -52.843449 -0.568277 116.426701 84.101769 110.552364 -4.186586 -25.683974 0.847960 0.001471 -0.002063 0.000668
-0.543288 127.015065 41.129962 171.932847 -29.072009 -3.572165 -0.376330 15.557685 3.230098 -0.074781 1.507502 0.314881 -0.120711 2.527991 0.527054 -0.398968 13.742089 2.858100 -3.043451 21.280627 0.218172 -3.334172 -3.107379 0.953910 2.887668 5.702250 -4.681860 5.582641 -1.401129 -7.946479 -70.140556 -49.145920 113.554509 -26.221253 -19.049333 -36.329268 -0.141087 7.536597 0.341764 6.583355 3.395398 0.410268 74.892077 -58.698954 -120.488915 26.917114 -2.849759 39.579734 5.227591 -53.373830 0.748516 -94.048761 78.151316 -87.679604 3.917084 6.827970 -17.403021 0.006243 -0.004451 0.002834 -11.692713 -52.935337 -0.662311 116.510525 84.128783 110.687702 -4.247464 -25.679143 0.853319 -0.001084 -0.003168 -0.000492
-0.544437 127.011189 41.125347 171.942189 -29.007194 -3.555432 -0.375877 15.551372 3.217375 -0.074360 1.507822 0.314655 -0.123879 2.513778 0.525982 -0.391541 13.763905 2.857935 -3.035550 21.279515 0.200418 -3.315491 -3.086615 0.921133 2.896230 5.683826 -4.686657 5.591776 -1.373642 -7.937514 -70.109271 -49.134996 113.480089 -26.208723 -19.060554 -36.328747 -0.155731 7.527217 0.331462 6.552118 3.363512 0.400794 74.720717 -58.598625 -120.382467 26.948210 -2.875623 39.617502 5.228883 -53.437297 0.715142 -94.077710 78.155579 -87.710277 3.845571 6.825445 -17.395082 -0.002210 0.000216 -0.001004 -11.595455 -52.996380 -0.743856 116.563409 84.110513 110.764682 -4.332341 -25.684548 0.872626 -0.007541 -0.005527 -0.003423
